ISO-10303-21;
HEADER;
/* Generated by software containing ST-Developer
 * from STEP Tools, Inc. (www.steptools.com) 
 */
/* OPTION: using custom renumber hook */

FILE_DESCRIPTION(
/* description */ ('STEP AP242 Edition 2',
'CAx-IF Rec.Pracs.---Representation and Presentation of Product Manufa
cturing Information (PMI)---4.0---2014-10-13',
'CAx-IF Rec.Pracs.---3D Tessellated Geometry---0.4---2014-09-14','2;1',
'CAx-IF Rec.Pracs.---User Defined Attributes---1.5---2016-08-15'),
/* implementation_level */ '2;1');

FILE_NAME(
/* name */ 'Part Studio 1 - Part 1',
/* time_stamp */ '2026-08-07T18:54:07Z',
/* author */ (''),
/* organization */ (''),
/* preprocessor_version */ 'ST-DEVELOPER v20',
/* originating_system */ 'ONSHAPE BY PTC INC, 1.219',
/* authorisation */ '  ');

FILE_SCHEMA (('AP242_MANAGED_MODEL_BASED_3D_ENGINEERING_MIM_LF { 1 0 10303 442 3 1 4 }'));
ENDSEC;

DATA;
#10=SHAPE_REPRESENTATION_RELATIONSHIP('','',#439,#11);
#11=ADVANCED_BREP_SHAPE_REPRESENTATION('',(#437),#687);
#12=CIRCLE('',#455,0.0015);
#13=CIRCLE('',#456,0.0015);
#14=CIRCLE('',#458,0.0015);
#15=CIRCLE('',#459,0.0015);
#16=CIRCLE('',#461,0.0015);
#17=CIRCLE('',#462,0.0015);
#18=CYLINDRICAL_SURFACE('',#454,0.0015);
#19=CYLINDRICAL_SURFACE('',#457,0.0015);
#20=CYLINDRICAL_SURFACE('',#460,0.0015);
#21=ORIENTED_EDGE('',*,*,#129,.F.);
#22=ORIENTED_EDGE('',*,*,#130,.F.);
#23=ORIENTED_EDGE('',*,*,#131,.T.);
#24=ORIENTED_EDGE('',*,*,#132,.T.);
#25=ORIENTED_EDGE('',*,*,#133,.T.);
#26=ORIENTED_EDGE('',*,*,#134,.F.);
#27=ORIENTED_EDGE('',*,*,#135,.F.);
#28=ORIENTED_EDGE('',*,*,#130,.T.);
#29=ORIENTED_EDGE('',*,*,#136,.T.);
#30=ORIENTED_EDGE('',*,*,#137,.F.);
#31=ORIENTED_EDGE('',*,*,#138,.F.);
#32=ORIENTED_EDGE('',*,*,#134,.T.);
#33=ORIENTED_EDGE('',*,*,#139,.F.);
#34=ORIENTED_EDGE('',*,*,#140,.F.);
#35=ORIENTED_EDGE('',*,*,#141,.T.);
#36=ORIENTED_EDGE('',*,*,#142,.T.);
#37=ORIENTED_EDGE('',*,*,#143,.T.);
#38=ORIENTED_EDGE('',*,*,#144,.F.);
#39=ORIENTED_EDGE('',*,*,#145,.F.);
#40=ORIENTED_EDGE('',*,*,#140,.T.);
#41=ORIENTED_EDGE('',*,*,#146,.T.);
#42=ORIENTED_EDGE('',*,*,#147,.F.);
#43=ORIENTED_EDGE('',*,*,#148,.F.);
#44=ORIENTED_EDGE('',*,*,#144,.T.);
#45=ORIENTED_EDGE('',*,*,#149,.F.);
#46=ORIENTED_EDGE('',*,*,#150,.F.);
#47=ORIENTED_EDGE('',*,*,#151,.T.);
#48=ORIENTED_EDGE('',*,*,#152,.T.);
#49=ORIENTED_EDGE('',*,*,#153,.T.);
#50=ORIENTED_EDGE('',*,*,#154,.F.);
#51=ORIENTED_EDGE('',*,*,#155,.F.);
#52=ORIENTED_EDGE('',*,*,#150,.T.);
#53=ORIENTED_EDGE('',*,*,#156,.T.);
#54=ORIENTED_EDGE('',*,*,#157,.F.);
#55=ORIENTED_EDGE('',*,*,#158,.F.);
#56=ORIENTED_EDGE('',*,*,#154,.T.);
#57=ORIENTED_EDGE('',*,*,#159,.F.);
#58=ORIENTED_EDGE('',*,*,#160,.F.);
#59=ORIENTED_EDGE('',*,*,#161,.T.);
#60=ORIENTED_EDGE('',*,*,#162,.T.);
#61=ORIENTED_EDGE('',*,*,#163,.T.);
#62=ORIENTED_EDGE('',*,*,#164,.F.);
#63=ORIENTED_EDGE('',*,*,#165,.F.);
#64=ORIENTED_EDGE('',*,*,#160,.T.);
#65=ORIENTED_EDGE('',*,*,#166,.T.);
#66=ORIENTED_EDGE('',*,*,#167,.F.);
#67=ORIENTED_EDGE('',*,*,#168,.F.);
#68=ORIENTED_EDGE('',*,*,#164,.T.);
#69=ORIENTED_EDGE('',*,*,#169,.F.);
#70=ORIENTED_EDGE('',*,*,#142,.F.);
#71=ORIENTED_EDGE('',*,*,#170,.T.);
#72=ORIENTED_EDGE('',*,*,#147,.T.);
#73=ORIENTED_EDGE('',*,*,#171,.T.);
#74=ORIENTED_EDGE('',*,*,#172,.F.);
#75=ORIENTED_EDGE('',*,*,#173,.T.);
#76=ORIENTED_EDGE('',*,*,#174,.F.);
#77=ORIENTED_EDGE('',*,*,#175,.T.);
#78=ORIENTED_EDGE('',*,*,#176,.F.);
#79=ORIENTED_EDGE('',*,*,#177,.F.);
#80=ORIENTED_EDGE('',*,*,#152,.F.);
#81=ORIENTED_EDGE('',*,*,#178,.T.);
#82=ORIENTED_EDGE('',*,*,#157,.T.);
#83=ORIENTED_EDGE('',*,*,#179,.F.);
#84=ORIENTED_EDGE('',*,*,#162,.F.);
#85=ORIENTED_EDGE('',*,*,#180,.T.);
#86=ORIENTED_EDGE('',*,*,#167,.T.);
#87=ORIENTED_EDGE('',*,*,#181,.F.);
#88=ORIENTED_EDGE('',*,*,#132,.F.);
#89=ORIENTED_EDGE('',*,*,#182,.T.);
#90=ORIENTED_EDGE('',*,*,#137,.T.);
#91=ORIENTED_EDGE('',*,*,#161,.F.);
#92=ORIENTED_EDGE('',*,*,#165,.T.);
#93=ORIENTED_EDGE('',*,*,#168,.T.);
#94=ORIENTED_EDGE('',*,*,#180,.F.);
#95=ORIENTED_EDGE('',*,*,#151,.F.);
#96=ORIENTED_EDGE('',*,*,#155,.T.);
#97=ORIENTED_EDGE('',*,*,#158,.T.);
#98=ORIENTED_EDGE('',*,*,#178,.F.);
#99=ORIENTED_EDGE('',*,*,#175,.F.);
#100=ORIENTED_EDGE('',*,*,#173,.F.);
#101=ORIENTED_EDGE('',*,*,#171,.F.);
#102=ORIENTED_EDGE('',*,*,#141,.F.);
#103=ORIENTED_EDGE('',*,*,#145,.T.);
#104=ORIENTED_EDGE('',*,*,#148,.T.);
#105=ORIENTED_EDGE('',*,*,#170,.F.);
#106=ORIENTED_EDGE('',*,*,#131,.F.);
#107=ORIENTED_EDGE('',*,*,#135,.T.);
#108=ORIENTED_EDGE('',*,*,#138,.T.);
#109=ORIENTED_EDGE('',*,*,#182,.F.);
#110=ORIENTED_EDGE('',*,*,#159,.T.);
#111=ORIENTED_EDGE('',*,*,#179,.T.);
#112=ORIENTED_EDGE('',*,*,#166,.F.);
#113=ORIENTED_EDGE('',*,*,#163,.F.);
#114=ORIENTED_EDGE('',*,*,#149,.T.);
#115=ORIENTED_EDGE('',*,*,#177,.T.);
#116=ORIENTED_EDGE('',*,*,#156,.F.);
#117=ORIENTED_EDGE('',*,*,#153,.F.);
#118=ORIENTED_EDGE('',*,*,#176,.T.);
#119=ORIENTED_EDGE('',*,*,#174,.T.);
#120=ORIENTED_EDGE('',*,*,#172,.T.);
#121=ORIENTED_EDGE('',*,*,#139,.T.);
#122=ORIENTED_EDGE('',*,*,#169,.T.);
#123=ORIENTED_EDGE('',*,*,#146,.F.);
#124=ORIENTED_EDGE('',*,*,#143,.F.);
#125=ORIENTED_EDGE('',*,*,#129,.T.);
#126=ORIENTED_EDGE('',*,*,#181,.T.);
#127=ORIENTED_EDGE('',*,*,#136,.F.);
#128=ORIENTED_EDGE('',*,*,#133,.F.);
#129=EDGE_CURVE('',#183,#184,#221,.T.);
#130=EDGE_CURVE('',#185,#183,#222,.T.);
#131=EDGE_CURVE('',#185,#186,#223,.T.);
#132=EDGE_CURVE('',#186,#184,#224,.T.);
#133=EDGE_CURVE('',#183,#187,#225,.T.);
#134=EDGE_CURVE('',#188,#187,#226,.T.);
#135=EDGE_CURVE('',#185,#188,#227,.T.);
#136=EDGE_CURVE('',#187,#189,#228,.T.);
#137=EDGE_CURVE('',#190,#189,#229,.T.);
#138=EDGE_CURVE('',#188,#190,#230,.T.);
#139=EDGE_CURVE('',#191,#192,#231,.T.);
#140=EDGE_CURVE('',#193,#191,#232,.T.);
#141=EDGE_CURVE('',#193,#194,#233,.T.);
#142=EDGE_CURVE('',#194,#192,#234,.T.);
#143=EDGE_CURVE('',#191,#195,#235,.T.);
#144=EDGE_CURVE('',#196,#195,#236,.T.);
#145=EDGE_CURVE('',#193,#196,#237,.T.);
#146=EDGE_CURVE('',#195,#197,#238,.T.);
#147=EDGE_CURVE('',#198,#197,#239,.T.);
#148=EDGE_CURVE('',#196,#198,#240,.T.);
#149=EDGE_CURVE('',#199,#200,#241,.T.);
#150=EDGE_CURVE('',#201,#199,#242,.T.);
#151=EDGE_CURVE('',#201,#202,#243,.T.);
#152=EDGE_CURVE('',#202,#200,#244,.T.);
#153=EDGE_CURVE('',#199,#203,#245,.T.);
#154=EDGE_CURVE('',#204,#203,#246,.T.);
#155=EDGE_CURVE('',#201,#204,#247,.T.);
#156=EDGE_CURVE('',#203,#205,#248,.T.);
#157=EDGE_CURVE('',#206,#205,#249,.T.);
#158=EDGE_CURVE('',#204,#206,#250,.T.);
#159=EDGE_CURVE('',#207,#208,#251,.T.);
#160=EDGE_CURVE('',#209,#207,#252,.T.);
#161=EDGE_CURVE('',#209,#210,#253,.T.);
#162=EDGE_CURVE('',#210,#208,#254,.T.);
#163=EDGE_CURVE('',#207,#211,#255,.T.);
#164=EDGE_CURVE('',#212,#211,#256,.T.);
#165=EDGE_CURVE('',#209,#212,#257,.T.);
#166=EDGE_CURVE('',#211,#213,#258,.T.);
#167=EDGE_CURVE('',#214,#213,#259,.T.);
#168=EDGE_CURVE('',#212,#214,#260,.T.);
#169=EDGE_CURVE('',#192,#197,#261,.T.);
#170=EDGE_CURVE('',#194,#198,#262,.T.);
#171=EDGE_CURVE('',#215,#215,#12,.T.);
#172=EDGE_CURVE('',#216,#216,#13,.T.);
#173=EDGE_CURVE('',#217,#217,#14,.T.);
#174=EDGE_CURVE('',#218,#218,#15,.T.);
#175=EDGE_CURVE('',#219,#219,#16,.T.);
#176=EDGE_CURVE('',#220,#220,#17,.T.);
#177=EDGE_CURVE('',#200,#205,#263,.T.);
#178=EDGE_CURVE('',#202,#206,#264,.T.);
#179=EDGE_CURVE('',#208,#213,#265,.T.);
#180=EDGE_CURVE('',#210,#214,#266,.T.);
#181=EDGE_CURVE('',#184,#189,#267,.T.);
#182=EDGE_CURVE('',#186,#190,#268,.T.);
#183=VERTEX_POINT('',#575);
#184=VERTEX_POINT('',#576);
#185=VERTEX_POINT('',#578);
#186=VERTEX_POINT('',#580);
#187=VERTEX_POINT('',#584);
#188=VERTEX_POINT('',#586);
#189=VERTEX_POINT('',#590);
#190=VERTEX_POINT('',#592);
#191=VERTEX_POINT('',#596);
#192=VERTEX_POINT('',#597);
#193=VERTEX_POINT('',#599);
#194=VERTEX_POINT('',#601);
#195=VERTEX_POINT('',#605);
#196=VERTEX_POINT('',#607);
#197=VERTEX_POINT('',#611);
#198=VERTEX_POINT('',#613);
#199=VERTEX_POINT('',#617);
#200=VERTEX_POINT('',#618);
#201=VERTEX_POINT('',#620);
#202=VERTEX_POINT('',#622);
#203=VERTEX_POINT('',#626);
#204=VERTEX_POINT('',#628);
#205=VERTEX_POINT('',#632);
#206=VERTEX_POINT('',#634);
#207=VERTEX_POINT('',#638);
#208=VERTEX_POINT('',#639);
#209=VERTEX_POINT('',#641);
#210=VERTEX_POINT('',#643);
#211=VERTEX_POINT('',#647);
#212=VERTEX_POINT('',#649);
#213=VERTEX_POINT('',#653);
#214=VERTEX_POINT('',#655);
#215=VERTEX_POINT('',#662);
#216=VERTEX_POINT('',#664);
#217=VERTEX_POINT('',#667);
#218=VERTEX_POINT('',#669);
#219=VERTEX_POINT('',#672);
#220=VERTEX_POINT('',#674);
#221=LINE('',#574,#269);
#222=LINE('',#577,#270);
#223=LINE('',#579,#271);
#224=LINE('',#581,#272);
#225=LINE('',#583,#273);
#226=LINE('',#585,#274);
#227=LINE('',#587,#275);
#228=LINE('',#589,#276);
#229=LINE('',#591,#277);
#230=LINE('',#593,#278);
#231=LINE('',#595,#279);
#232=LINE('',#598,#280);
#233=LINE('',#600,#281);
#234=LINE('',#602,#282);
#235=LINE('',#604,#283);
#236=LINE('',#606,#284);
#237=LINE('',#608,#285);
#238=LINE('',#610,#286);
#239=LINE('',#612,#287);
#240=LINE('',#614,#288);
#241=LINE('',#616,#289);
#242=LINE('',#619,#290);
#243=LINE('',#621,#291);
#244=LINE('',#623,#292);
#245=LINE('',#625,#293);
#246=LINE('',#627,#294);
#247=LINE('',#629,#295);
#248=LINE('',#631,#296);
#249=LINE('',#633,#297);
#250=LINE('',#635,#298);
#251=LINE('',#637,#299);
#252=LINE('',#640,#300);
#253=LINE('',#642,#301);
#254=LINE('',#644,#302);
#255=LINE('',#646,#303);
#256=LINE('',#648,#304);
#257=LINE('',#650,#305);
#258=LINE('',#652,#306);
#259=LINE('',#654,#307);
#260=LINE('',#656,#308);
#261=LINE('',#658,#309);
#262=LINE('',#659,#310);
#263=LINE('',#676,#311);
#264=LINE('',#677,#312);
#265=LINE('',#679,#313);
#266=LINE('',#680,#314);
#267=LINE('',#682,#315);
#268=LINE('',#683,#316);
#269=VECTOR('',#472,1.);
#270=VECTOR('',#473,1.);
#271=VECTOR('',#474,1.);
#272=VECTOR('',#475,1.);
#273=VECTOR('',#478,1.);
#274=VECTOR('',#479,1.);
#275=VECTOR('',#480,1.);
#276=VECTOR('',#483,1.);
#277=VECTOR('',#484,1.);
#278=VECTOR('',#485,1.);
#279=VECTOR('',#488,1.);
#280=VECTOR('',#489,1.);
#281=VECTOR('',#490,1.);
#282=VECTOR('',#491,1.);
#283=VECTOR('',#494,1.);
#284=VECTOR('',#495,1.);
#285=VECTOR('',#496,1.);
#286=VECTOR('',#499,1.);
#287=VECTOR('',#500,1.);
#288=VECTOR('',#501,1.);
#289=VECTOR('',#504,1.);
#290=VECTOR('',#505,1.);
#291=VECTOR('',#506,1.);
#292=VECTOR('',#507,1.);
#293=VECTOR('',#510,1.);
#294=VECTOR('',#511,1.);
#295=VECTOR('',#512,1.);
#296=VECTOR('',#515,1.);
#297=VECTOR('',#516,1.);
#298=VECTOR('',#517,1.);
#299=VECTOR('',#520,1.);
#300=VECTOR('',#521,1.);
#301=VECTOR('',#522,1.);
#302=VECTOR('',#523,1.);
#303=VECTOR('',#526,1.);
#304=VECTOR('',#527,1.);
#305=VECTOR('',#528,1.);
#306=VECTOR('',#531,1.);
#307=VECTOR('',#532,1.);
#308=VECTOR('',#533,1.);
#309=VECTOR('',#536,1.);
#310=VECTOR('',#537,1.);
#311=VECTOR('',#558,1.);
#312=VECTOR('',#559,1.);
#313=VECTOR('',#562,1.);
#314=VECTOR('',#563,1.);
#315=VECTOR('',#566,1.);
#316=VECTOR('',#567,1.);
#317=EDGE_LOOP('',(#21,#22,#23,#24));
#318=EDGE_LOOP('',(#25,#26,#27,#28));
#319=EDGE_LOOP('',(#29,#30,#31,#32));
#320=EDGE_LOOP('',(#33,#34,#35,#36));
#321=EDGE_LOOP('',(#37,#38,#39,#40));
#322=EDGE_LOOP('',(#41,#42,#43,#44));
#323=EDGE_LOOP('',(#45,#46,#47,#48));
#324=EDGE_LOOP('',(#49,#50,#51,#52));
#325=EDGE_LOOP('',(#53,#54,#55,#56));
#326=EDGE_LOOP('',(#57,#58,#59,#60));
#327=EDGE_LOOP('',(#61,#62,#63,#64));
#328=EDGE_LOOP('',(#65,#66,#67,#68));
#329=EDGE_LOOP('',(#69,#70,#71,#72));
#330=EDGE_LOOP('',(#73));
#331=EDGE_LOOP('',(#74));
#332=EDGE_LOOP('',(#75));
#333=EDGE_LOOP('',(#76));
#334=EDGE_LOOP('',(#77));
#335=EDGE_LOOP('',(#78));
#336=EDGE_LOOP('',(#79,#80,#81,#82));
#337=EDGE_LOOP('',(#83,#84,#85,#86));
#338=EDGE_LOOP('',(#87,#88,#89,#90));
#339=EDGE_LOOP('',(#91,#92,#93,#94));
#340=EDGE_LOOP('',(#95,#96,#97,#98));
#341=EDGE_LOOP('',(#99));
#342=EDGE_LOOP('',(#100));
#343=EDGE_LOOP('',(#101));
#344=EDGE_LOOP('',(#102,#103,#104,#105));
#345=EDGE_LOOP('',(#106,#107,#108,#109));
#346=EDGE_LOOP('',(#110,#111,#112,#113));
#347=EDGE_LOOP('',(#114,#115,#116,#117));
#348=EDGE_LOOP('',(#118));
#349=EDGE_LOOP('',(#119));
#350=EDGE_LOOP('',(#120));
#351=EDGE_LOOP('',(#121,#122,#123,#124));
#352=EDGE_LOOP('',(#125,#126,#127,#128));
#353=FACE_BOUND('',#317,.T.);
#354=FACE_BOUND('',#318,.T.);
#355=FACE_BOUND('',#319,.T.);
#356=FACE_BOUND('',#320,.T.);
#357=FACE_BOUND('',#321,.T.);
#358=FACE_BOUND('',#322,.T.);
#359=FACE_BOUND('',#323,.T.);
#360=FACE_BOUND('',#324,.T.);
#361=FACE_BOUND('',#325,.T.);
#362=FACE_BOUND('',#326,.T.);
#363=FACE_BOUND('',#327,.T.);
#364=FACE_BOUND('',#328,.T.);
#365=FACE_BOUND('',#329,.T.);
#366=FACE_BOUND('',#330,.T.);
#367=FACE_BOUND('',#331,.T.);
#368=FACE_BOUND('',#332,.T.);
#369=FACE_BOUND('',#333,.T.);
#370=FACE_BOUND('',#334,.T.);
#371=FACE_BOUND('',#335,.T.);
#372=FACE_BOUND('',#336,.T.);
#373=FACE_BOUND('',#337,.T.);
#374=FACE_BOUND('',#338,.T.);
#375=FACE_BOUND('',#339,.T.);
#376=FACE_BOUND('',#340,.T.);
#377=FACE_BOUND('',#341,.T.);
#378=FACE_BOUND('',#342,.T.);
#379=FACE_BOUND('',#343,.T.);
#380=FACE_BOUND('',#344,.T.);
#381=FACE_BOUND('',#345,.T.);
#382=FACE_BOUND('',#346,.T.);
#383=FACE_BOUND('',#347,.T.);
#384=FACE_BOUND('',#348,.T.);
#385=FACE_BOUND('',#349,.T.);
#386=FACE_BOUND('',#350,.T.);
#387=FACE_BOUND('',#351,.T.);
#388=FACE_BOUND('',#352,.T.);
#389=PLANE('',#441);
#390=PLANE('',#442);
#391=PLANE('',#443);
#392=PLANE('',#444);
#393=PLANE('',#445);
#394=PLANE('',#446);
#395=PLANE('',#447);
#396=PLANE('',#448);
#397=PLANE('',#449);
#398=PLANE('',#450);
#399=PLANE('',#451);
#400=PLANE('',#452);
#401=PLANE('',#453);
#402=PLANE('',#463);
#403=PLANE('',#464);
#404=PLANE('',#465);
#405=PLANE('',#466);
#406=PLANE('',#467);
#407=ADVANCED_FACE('',(#353),#389,.T.);
#408=ADVANCED_FACE('',(#354),#390,.F.);
#409=ADVANCED_FACE('',(#355),#391,.F.);
#410=ADVANCED_FACE('',(#356),#392,.T.);
#411=ADVANCED_FACE('',(#357),#393,.F.);
#412=ADVANCED_FACE('',(#358),#394,.F.);
#413=ADVANCED_FACE('',(#359),#395,.T.);
#414=ADVANCED_FACE('',(#360),#396,.F.);
#415=ADVANCED_FACE('',(#361),#397,.F.);
#416=ADVANCED_FACE('',(#362),#398,.T.);
#417=ADVANCED_FACE('',(#363),#399,.F.);
#418=ADVANCED_FACE('',(#364),#400,.F.);
#419=ADVANCED_FACE('',(#365),#401,.T.);
#420=ADVANCED_FACE('',(#366,#367),#18,.F.);
#421=ADVANCED_FACE('',(#368,#369),#19,.F.);
#422=ADVANCED_FACE('',(#370,#371),#20,.F.);
#423=ADVANCED_FACE('',(#372),#402,.T.);
#424=ADVANCED_FACE('',(#373),#403,.T.);
#425=ADVANCED_FACE('',(#374),#404,.T.);
#426=ADVANCED_FACE('',(#375,#376,#377,#378,#379,#380,#381),#405,.T.);
#427=ADVANCED_FACE('',(#382,#383,#384,#385,#386,#387,#388),#406,.F.);
#428=CLOSED_SHELL('',(#407,#408,#409,#410,#411,#412,#413,#414,#415,#416,
#417,#418,#419,#420,#421,#422,#423,#424,#425,#426,#427));
#429=STYLED_ITEM('',(#430),#437);
#430=PRESENTATION_STYLE_ASSIGNMENT((#431));
#431=SURFACE_STYLE_USAGE(.BOTH.,#432);
#432=SURFACE_SIDE_STYLE('',(#433));
#433=SURFACE_STYLE_FILL_AREA(#434);
#434=FILL_AREA_STYLE('',(#435));
#435=FILL_AREA_STYLE_COLOUR('',#436);
#436=COLOUR_RGB('',0.615686274509804,0.811764705882353,0.929411764705882);
#437=MANIFOLD_SOLID_BREP('Part 1',#428);
#438=SHAPE_DEFINITION_REPRESENTATION(#692,#439);
#439=SHAPE_REPRESENTATION('Part 1',(#440),#687);
#440=AXIS2_PLACEMENT_3D('',#572,#468,#469);
#441=AXIS2_PLACEMENT_3D('',#573,#470,#471);
#442=AXIS2_PLACEMENT_3D('',#582,#476,#477);
#443=AXIS2_PLACEMENT_3D('',#588,#481,#482);
#444=AXIS2_PLACEMENT_3D('',#594,#486,#487);
#445=AXIS2_PLACEMENT_3D('',#603,#492,#493);
#446=AXIS2_PLACEMENT_3D('',#609,#497,#498);
#447=AXIS2_PLACEMENT_3D('',#615,#502,#503);
#448=AXIS2_PLACEMENT_3D('',#624,#508,#509);
#449=AXIS2_PLACEMENT_3D('',#630,#513,#514);
#450=AXIS2_PLACEMENT_3D('',#636,#518,#519);
#451=AXIS2_PLACEMENT_3D('',#645,#524,#525);
#452=AXIS2_PLACEMENT_3D('',#651,#529,#530);
#453=AXIS2_PLACEMENT_3D('',#657,#534,#535);
#454=AXIS2_PLACEMENT_3D('',#660,#538,#539);
#455=AXIS2_PLACEMENT_3D('',#661,#540,#541);
#456=AXIS2_PLACEMENT_3D('',#663,#542,#543);
#457=AXIS2_PLACEMENT_3D('',#665,#544,#545);
#458=AXIS2_PLACEMENT_3D('',#666,#546,#547);
#459=AXIS2_PLACEMENT_3D('',#668,#548,#549);
#460=AXIS2_PLACEMENT_3D('',#670,#550,#551);
#461=AXIS2_PLACEMENT_3D('',#671,#552,#553);
#462=AXIS2_PLACEMENT_3D('',#673,#554,#555);
#463=AXIS2_PLACEMENT_3D('',#675,#556,#557);
#464=AXIS2_PLACEMENT_3D('',#678,#560,#561);
#465=AXIS2_PLACEMENT_3D('',#681,#564,#565);
#466=AXIS2_PLACEMENT_3D('',#684,#568,#569);
#467=AXIS2_PLACEMENT_3D('',#685,#570,#571);
#468=DIRECTION('',(0.,0.,1.));
#469=DIRECTION('',(1.,0.,0.));
#470=DIRECTION('',(0.,-1.,0.));
#471=DIRECTION('',(0.,0.,-1.));
#472=DIRECTION('',(-1.,0.,0.));
#473=DIRECTION('',(0.,0.,-1.));
#474=DIRECTION('',(-1.,0.,0.));
#475=DIRECTION('',(0.,0.,-1.));
#476=DIRECTION('',(1.,2.47817639425258E-16,0.));
#477=DIRECTION('',(-2.47817639425258E-16,1.,0.));
#478=DIRECTION('',(2.47817639425258E-16,-1.,0.));
#479=DIRECTION('',(0.,0.,-1.));
#480=DIRECTION('',(2.47817639425258E-16,-1.,0.));
#481=DIRECTION('',(0.,-1.,0.));
#482=DIRECTION('',(0.,0.,-1.));
#483=DIRECTION('',(-1.,0.,0.));
#484=DIRECTION('',(0.,0.,-1.));
#485=DIRECTION('',(-1.,0.,0.));
#486=DIRECTION('',(0.,1.,0.));
#487=DIRECTION('',(0.,0.,1.));
#488=DIRECTION('',(1.,0.,0.));
#489=DIRECTION('',(0.,0.,-1.));
#490=DIRECTION('',(1.,0.,0.));
#491=DIRECTION('',(0.,0.,-1.));
#492=DIRECTION('',(-1.,0.,0.));
#493=DIRECTION('',(0.,0.,1.));
#494=DIRECTION('',(0.,1.,0.));
#495=DIRECTION('',(0.,0.,-1.));
#496=DIRECTION('',(0.,1.,0.));
#497=DIRECTION('',(0.,1.,0.));
#498=DIRECTION('',(0.,0.,1.));
#499=DIRECTION('',(1.,0.,0.));
#500=DIRECTION('',(0.,0.,-1.));
#501=DIRECTION('',(1.,0.,0.));
#502=DIRECTION('',(1.,0.,0.));
#503=DIRECTION('',(0.,0.,-1.));
#504=DIRECTION('',(0.,-1.,0.));
#505=DIRECTION('',(0.,0.,-1.));
#506=DIRECTION('',(0.,-1.,0.));
#507=DIRECTION('',(0.,0.,-1.));
#508=DIRECTION('',(0.,1.,0.));
#509=DIRECTION('',(0.,0.,1.));
#510=DIRECTION('',(1.,0.,0.));
#511=DIRECTION('',(0.,0.,-1.));
#512=DIRECTION('',(1.,0.,0.));
#513=DIRECTION('',(1.,0.,0.));
#514=DIRECTION('',(0.,0.,-1.));
#515=DIRECTION('',(0.,-1.,0.));
#516=DIRECTION('',(0.,0.,-1.));
#517=DIRECTION('',(0.,-1.,0.));
#518=DIRECTION('',(1.,3.23815048849004E-16,0.));
#519=DIRECTION('',(-3.23815048849004E-16,1.,0.));
#520=DIRECTION('',(3.23815048849004E-16,-1.,0.));
#521=DIRECTION('',(0.,0.,-1.));
#522=DIRECTION('',(3.23815048849004E-16,-1.,0.));
#523=DIRECTION('',(0.,0.,-1.));
#524=DIRECTION('',(1.38777878078145E-16,-1.,0.));
#525=DIRECTION('',(1.,1.38777878078145E-16,0.));
#526=DIRECTION('',(-1.,-1.38777878078145E-16,0.));
#527=DIRECTION('',(0.,0.,-1.));
#528=DIRECTION('',(-1.,-1.38777878078145E-16,0.));
#529=DIRECTION('',(1.,3.23815048849004E-16,0.));
#530=DIRECTION('',(-3.23815048849004E-16,1.,0.));
#531=DIRECTION('',(3.23815048849004E-16,-1.,0.));
#532=DIRECTION('',(0.,0.,-1.));
#533=DIRECTION('',(3.23815048849004E-16,-1.,0.));
#534=DIRECTION('',(-1.,-1.85863229568943E-16,0.));
#535=DIRECTION('',(1.85863229568943E-16,-1.,0.));
#536=DIRECTION('',(-1.85863229568943E-16,1.,0.));
#537=DIRECTION('',(-1.85863229568943E-16,1.,0.));
#538=DIRECTION('',(0.,0.,-1.));
#539=DIRECTION('',(-1.,0.,0.));
#540=DIRECTION('',(0.,0.,1.));
#541=DIRECTION('',(1.,0.,0.));
#542=DIRECTION('',(0.,0.,1.));
#543=DIRECTION('',(1.,0.,0.));
#544=DIRECTION('',(0.,0.,-1.));
#545=DIRECTION('',(-1.,0.,0.));
#546=DIRECTION('',(0.,0.,1.));
#547=DIRECTION('',(1.,0.,0.));
#548=DIRECTION('',(0.,0.,1.));
#549=DIRECTION('',(1.,0.,0.));
#550=DIRECTION('',(0.,0.,-1.));
#551=DIRECTION('',(-1.,0.,0.));
#552=DIRECTION('',(0.,0.,1.));
#553=DIRECTION('',(1.,0.,0.));
#554=DIRECTION('',(0.,0.,1.));
#555=DIRECTION('',(1.,0.,0.));
#556=DIRECTION('',(0.,1.,0.));
#557=DIRECTION('',(0.,0.,1.));
#558=DIRECTION('',(1.,0.,0.));
#559=DIRECTION('',(1.,0.,0.));
#560=DIRECTION('',(1.38777878078145E-16,-1.,0.));
#561=DIRECTION('',(1.,1.38777878078145E-16,0.));
#562=DIRECTION('',(-1.,-1.38777878078145E-16,0.));
#563=DIRECTION('',(-1.,-1.38777878078145E-16,0.));
#564=DIRECTION('',(1.,2.47817639425258E-16,0.));
#565=DIRECTION('',(-2.47817639425258E-16,1.,0.));
#566=DIRECTION('',(2.47817639425258E-16,-1.,0.));
#567=DIRECTION('',(2.47817639425258E-16,-1.,0.));
#568=DIRECTION('',(0.,0.,1.));
#569=DIRECTION('',(1.,0.,0.));
#570=DIRECTION('',(0.,0.,1.));
#571=DIRECTION('',(1.,0.,0.));
#572=CARTESIAN_POINT('',(0.,0.,0.));
#573=CARTESIAN_POINT('',(-0.0131628252565867,0.007,0.0015));
#574=CARTESIAN_POINT('',(-0.0131628252565867,0.007,0.));
#575=CARTESIAN_POINT('',(-0.00616282525658668,0.007,0.));
#576=CARTESIAN_POINT('',(-0.0201628252565867,0.007,0.));
#577=CARTESIAN_POINT('',(-0.00616282525658668,0.007,0.0015));
#578=CARTESIAN_POINT('',(-0.00616282525658668,0.007,0.0015));
#579=CARTESIAN_POINT('',(-0.0131628252565867,0.007,0.0015));
#580=CARTESIAN_POINT('',(-0.0201628252565867,0.007,0.0015));
#581=CARTESIAN_POINT('',(-0.0201628252565867,0.007,0.0015));
#582=CARTESIAN_POINT('',(-0.00616282525658668,0.,0.0015));
#583=CARTESIAN_POINT('',(-0.00616282525658668,0.,0.));
#584=CARTESIAN_POINT('',(-0.00616282525658668,-0.007,0.));
#585=CARTESIAN_POINT('',(-0.00616282525658668,-0.007,0.0015));
#586=CARTESIAN_POINT('',(-0.00616282525658668,-0.007,0.0015));
#587=CARTESIAN_POINT('',(-0.00616282525658668,0.,0.0015));
#588=CARTESIAN_POINT('',(-0.0131628252565867,-0.007,0.0015));
#589=CARTESIAN_POINT('',(-0.0131628252565867,-0.007,0.));
#590=CARTESIAN_POINT('',(-0.0201628252565867,-0.007,0.));
#591=CARTESIAN_POINT('',(-0.0201628252565867,-0.007,0.0015));
#592=CARTESIAN_POINT('',(-0.0201628252565867,-0.007,0.0015));
#593=CARTESIAN_POINT('',(-0.0131628252565867,-0.007,0.0015));
#594=CARTESIAN_POINT('',(-0.0131628252565867,0.0199537519365549,0.0015));
#595=CARTESIAN_POINT('',(-0.0131628252565867,0.0199537519365549,0.));
#596=CARTESIAN_POINT('',(-0.0201628252565867,0.0199537519365549,0.));
#597=CARTESIAN_POINT('',(-0.00616282525658669,0.0199537519365549,0.));
#598=CARTESIAN_POINT('',(-0.0201628252565867,0.0199537519365549,0.0015));
#599=CARTESIAN_POINT('',(-0.0201628252565867,0.0199537519365549,0.0015));
#600=CARTESIAN_POINT('',(-0.0131628252565867,0.0199537519365549,0.0015));
#601=CARTESIAN_POINT('',(-0.00616282525658669,0.0199537519365549,0.0015));
#602=CARTESIAN_POINT('',(-0.00616282525658669,0.0199537519365549,0.0015));
#603=CARTESIAN_POINT('',(-0.0201628252565867,0.0269537519365549,0.0015));
#604=CARTESIAN_POINT('',(-0.0201628252565867,0.0269537519365549,0.));
#605=CARTESIAN_POINT('',(-0.0201628252565867,0.0339537519365549,0.));
#606=CARTESIAN_POINT('',(-0.0201628252565867,0.0339537519365549,0.0015));
#607=CARTESIAN_POINT('',(-0.0201628252565867,0.0339537519365549,0.0015));
#608=CARTESIAN_POINT('',(-0.0201628252565867,0.0269537519365549,0.0015));
#609=CARTESIAN_POINT('',(-0.0131628252565867,0.0339537519365549,0.0015));
#610=CARTESIAN_POINT('',(-0.0131628252565867,0.0339537519365549,0.));
#611=CARTESIAN_POINT('',(-0.00616282525658669,0.0339537519365549,0.));
#612=CARTESIAN_POINT('',(-0.00616282525658669,0.0339537519365549,0.0015));
#613=CARTESIAN_POINT('',(-0.00616282525658669,0.0339537519365549,0.0015));
#614=CARTESIAN_POINT('',(-0.0131628252565867,0.0339537519365549,0.0015));
#615=CARTESIAN_POINT('',(-0.0200776653364302,-0.0259761803150177,0.0015));
#616=CARTESIAN_POINT('',(-0.0200776653364302,-0.0259761803150177,0.));
#617=CARTESIAN_POINT('',(-0.0200776653364302,-0.0189761803150177,0.));
#618=CARTESIAN_POINT('',(-0.0200776653364302,-0.0329761803150177,0.));
#619=CARTESIAN_POINT('',(-0.0200776653364302,-0.0189761803150177,0.0015));
#620=CARTESIAN_POINT('',(-0.0200776653364302,-0.0189761803150177,0.0015));
#621=CARTESIAN_POINT('',(-0.0200776653364302,-0.0259761803150177,0.0015));
#622=CARTESIAN_POINT('',(-0.0200776653364302,-0.0329761803150177,0.0015));
#623=CARTESIAN_POINT('',(-0.0200776653364302,-0.0329761803150177,0.0015));
#624=CARTESIAN_POINT('',(-0.0130776653364301,-0.0189761803150177,0.0015));
#625=CARTESIAN_POINT('',(-0.0130776653364301,-0.0189761803150177,0.));
#626=CARTESIAN_POINT('',(-0.00607766533643014,-0.0189761803150177,0.));
#627=CARTESIAN_POINT('',(-0.00607766533643014,-0.0189761803150177,0.0015));
#628=CARTESIAN_POINT('',(-0.00607766533643014,-0.0189761803150177,0.0015));
#629=CARTESIAN_POINT('',(-0.0130776653364301,-0.0189761803150177,0.0015));
#630=CARTESIAN_POINT('',(-0.00607766533643014,-0.0259761803150177,0.0015));
#631=CARTESIAN_POINT('',(-0.00607766533643014,-0.0259761803150177,0.));
#632=CARTESIAN_POINT('',(-0.00607766533643014,-0.0329761803150177,0.));
#633=CARTESIAN_POINT('',(-0.00607766533643014,-0.0329761803150177,0.0015));
#634=CARTESIAN_POINT('',(-0.00607766533643014,-0.0329761803150177,0.0015));
#635=CARTESIAN_POINT('',(-0.00607766533643014,-0.0259761803150177,0.0015));
#636=CARTESIAN_POINT('',(0.021186300739646,0.000695603340864194,0.0015));
#637=CARTESIAN_POINT('',(0.021186300739646,0.000695603340864194,0.));
#638=CARTESIAN_POINT('',(0.021186300739646,0.0381956033408642,0.));
#639=CARTESIAN_POINT('',(0.021186300739646,-0.0368043966591358,0.));
#640=CARTESIAN_POINT('',(0.021186300739646,0.0381956033408642,0.0015));
#641=CARTESIAN_POINT('',(0.021186300739646,0.0381956033408642,0.0015));
#642=CARTESIAN_POINT('',(0.021186300739646,0.000695603340864194,0.0015));
#643=CARTESIAN_POINT('',(0.021186300739646,-0.0368043966591358,0.0015));
#644=CARTESIAN_POINT('',(0.021186300739646,-0.0368043966591358,0.0015));
#645=CARTESIAN_POINT('',(-0.00381369926035403,0.0381956033408642,0.0015));
#646=CARTESIAN_POINT('',(-0.00381369926035403,0.0381956033408642,0.));
#647=CARTESIAN_POINT('',(-0.0288136992603541,0.0381956033408642,0.));
#648=CARTESIAN_POINT('',(-0.0288136992603541,0.0381956033408642,0.0015));
#649=CARTESIAN_POINT('',(-0.0288136992603541,0.0381956033408642,0.0015));
#650=CARTESIAN_POINT('',(-0.00381369926035403,0.0381956033408642,0.0015));
#651=CARTESIAN_POINT('',(-0.028813699260354,0.000695603340864187,0.0015));
#652=CARTESIAN_POINT('',(-0.028813699260354,0.000695603340864187,0.));
#653=CARTESIAN_POINT('',(-0.028813699260354,-0.0368043966591358,0.));
#654=CARTESIAN_POINT('',(-0.028813699260354,-0.0368043966591358,0.0015));
#655=CARTESIAN_POINT('',(-0.028813699260354,-0.0368043966591358,0.0015));
#656=CARTESIAN_POINT('',(-0.028813699260354,0.000695603340864187,0.0015));
#657=CARTESIAN_POINT('',(-0.00616282525658669,0.0269537519365549,0.0015));
#658=CARTESIAN_POINT('',(-0.00616282525658669,0.0269537519365549,0.));
#659=CARTESIAN_POINT('',(-0.00616282525658669,0.0269537519365549,0.0015));
#660=CARTESIAN_POINT('',(0.0146419031180061,-0.025571049526563,0.0015));
#661=CARTESIAN_POINT('',(0.0146419031180061,-0.025571049526563,0.0015));
#662=CARTESIAN_POINT('',(0.0161419031180061,-0.025571049526563,0.0015));
#663=CARTESIAN_POINT('',(0.0146419031180061,-0.025571049526563,0.));
#664=CARTESIAN_POINT('',(0.0161419031180061,-0.025571049526563,0.));
#665=CARTESIAN_POINT('',(0.0143338511892182,-5.07312767660408E-5,0.0015));
#666=CARTESIAN_POINT('',(0.0143338511892182,-5.07312767660408E-5,0.0015));
#667=CARTESIAN_POINT('',(0.0158338511892182,-5.07312767660408E-5,0.0015));
#668=CARTESIAN_POINT('',(0.0143338511892182,-5.07312767660408E-5,0.));
#669=CARTESIAN_POINT('',(0.0158338511892182,-5.07312767660408E-5,0.));
#670=CARTESIAN_POINT('',(0.013658675156169,0.0273060393712195,0.0015));
#671=CARTESIAN_POINT('',(0.013658675156169,0.0273060393712195,0.0015));
#672=CARTESIAN_POINT('',(0.015158675156169,0.0273060393712195,0.0015));
#673=CARTESIAN_POINT('',(0.013658675156169,0.0273060393712195,0.));
#674=CARTESIAN_POINT('',(0.015158675156169,0.0273060393712195,0.));
#675=CARTESIAN_POINT('',(-0.0130776653364301,-0.0329761803150177,0.0015));
#676=CARTESIAN_POINT('',(-0.0130776653364301,-0.0329761803150177,0.));
#677=CARTESIAN_POINT('',(-0.0130776653364301,-0.0329761803150177,0.0015));
#678=CARTESIAN_POINT('',(-0.00381369926035401,-0.0368043966591358,0.0015));
#679=CARTESIAN_POINT('',(-0.00381369926035401,-0.0368043966591358,0.));
#680=CARTESIAN_POINT('',(-0.00381369926035401,-0.0368043966591358,0.0015));
#681=CARTESIAN_POINT('',(-0.0201628252565867,-8.67361737988404E-19,0.0015));
#682=CARTESIAN_POINT('',(-0.0201628252565867,-8.67361737988404E-19,0.));
#683=CARTESIAN_POINT('',(-0.0201628252565867,-8.67361737988404E-19,0.0015));
#684=CARTESIAN_POINT('',(-0.00381369926035402,0.000695603340864187,0.0015));
#685=CARTESIAN_POINT('',(-0.00381369926035402,0.000695603340864187,0.));
#686=MECHANICAL_DESIGN_GEOMETRIC_PRESENTATION_REPRESENTATION('',(#429),
#687);
#687=(
GEOMETRIC_REPRESENTATION_CONTEXT(3)
GLOBAL_UNCERTAINTY_ASSIGNED_CONTEXT((#688))
GLOBAL_UNIT_ASSIGNED_CONTEXT((#691,#690,#689))
REPRESENTATION_CONTEXT('Part 1','TOP_LEVEL_ASSEMBLY_PART')
);
#688=UNCERTAINTY_MEASURE_WITH_UNIT(LENGTH_MEASURE(1.E-8),#691,
'DISTANCE_ACCURACY_VALUE','Maximum Tolerance applied to model');
#689=(
NAMED_UNIT(*)
SI_UNIT($,.STERADIAN.)
SOLID_ANGLE_UNIT()
);
#690=(
NAMED_UNIT(*)
PLANE_ANGLE_UNIT()
SI_UNIT($,.RADIAN.)
);
#691=(
LENGTH_UNIT()
NAMED_UNIT(*)
SI_UNIT($,.METRE.)
);
#692=PRODUCT_DEFINITION_SHAPE('','',#693);
#693=PRODUCT_DEFINITION('','',#695,#694);
#694=PRODUCT_DEFINITION_CONTEXT('',#701,'design');
#695=PRODUCT_DEFINITION_FORMATION_WITH_SPECIFIED_SOURCE('','',#697,
 .NOT_KNOWN.);
#696=PRODUCT_RELATED_PRODUCT_CATEGORY('','',(#697));
#697=PRODUCT('Part 1','Part 1','Part 1',(#699));
#698=PRODUCT_CATEGORY('','');
#699=PRODUCT_CONTEXT('',#701,'mechanical');
#700=APPLICATION_PROTOCOL_DEFINITION('international standard',
'ap242_managed_model_based_3d_engineering',2020,#701);
#701=APPLICATION_CONTEXT('managed model based 3d engineering');
ENDSEC;
END-ISO-10303-21;
