ISO-10303-21;
HEADER;
/* Generated by software containing ST-Developer
 * from STEP Tools, Inc. (www.steptools.com) 
 */
/* OPTION: using custom renumber hook */

FILE_DESCRIPTION(
/* description */ ('STEP AP242 Edition 2',
'CAx-IF Rec.Pracs.---Representation and Presentation of Product Manufa
cturing Information (PMI)---4.0---2014-10-13',
'CAx-IF Rec.Pracs.---3D Tessellated Geometry---0.4---2014-09-14','2;1',
'CAx-IF Rec.Pracs.---User Defined Attributes---1.5---2016-08-15'),
/* implementation_level */ '2;1');

FILE_NAME(
/* name */ 'Part Studio 1',
/* time_stamp */ '2026-08-07T18:55:11Z',
/* author */ (''),
/* organization */ (''),
/* preprocessor_version */ 'ST-DEVELOPER v20',
/* originating_system */ 'ONSHAPE BY PTC INC, 1.219',
/* authorisation */ '  ');

FILE_SCHEMA (('AP242_MANAGED_MODEL_BASED_3D_ENGINEERING_MIM_LF { 1 0 10303 442 3 1 4 }'));
ENDSEC;

DATA;
#10=SHAPE_REPRESENTATION_RELATIONSHIP('','',#325,#13);
#11=SHAPE_REPRESENTATION_RELATIONSHIP('','',#326,#14);
#12=SHAPE_REPRESENTATION_RELATIONSHIP('','',#327,#15);
#13=ADVANCED_BREP_SHAPE_REPRESENTATION('',(#319),#511);
#14=ADVANCED_BREP_SHAPE_REPRESENTATION('',(#320),#512);
#15=ADVANCED_BREP_SHAPE_REPRESENTATION('',(#321),#513);
#16=ORIENTED_EDGE('',*,*,#88,.F.);
#17=ORIENTED_EDGE('',*,*,#89,.F.);
#18=ORIENTED_EDGE('',*,*,#90,.T.);
#19=ORIENTED_EDGE('',*,*,#91,.T.);
#20=ORIENTED_EDGE('',*,*,#92,.T.);
#21=ORIENTED_EDGE('',*,*,#93,.F.);
#22=ORIENTED_EDGE('',*,*,#94,.F.);
#23=ORIENTED_EDGE('',*,*,#89,.T.);
#24=ORIENTED_EDGE('',*,*,#95,.T.);
#25=ORIENTED_EDGE('',*,*,#96,.F.);
#26=ORIENTED_EDGE('',*,*,#97,.F.);
#27=ORIENTED_EDGE('',*,*,#93,.T.);
#28=ORIENTED_EDGE('',*,*,#98,.F.);
#29=ORIENTED_EDGE('',*,*,#91,.F.);
#30=ORIENTED_EDGE('',*,*,#99,.T.);
#31=ORIENTED_EDGE('',*,*,#96,.T.);
#32=ORIENTED_EDGE('',*,*,#90,.F.);
#33=ORIENTED_EDGE('',*,*,#94,.T.);
#34=ORIENTED_EDGE('',*,*,#97,.T.);
#35=ORIENTED_EDGE('',*,*,#99,.F.);
#36=ORIENTED_EDGE('',*,*,#88,.T.);
#37=ORIENTED_EDGE('',*,*,#98,.T.);
#38=ORIENTED_EDGE('',*,*,#95,.F.);
#39=ORIENTED_EDGE('',*,*,#92,.F.);
#40=ORIENTED_EDGE('',*,*,#100,.F.);
#41=ORIENTED_EDGE('',*,*,#101,.F.);
#42=ORIENTED_EDGE('',*,*,#102,.T.);
#43=ORIENTED_EDGE('',*,*,#103,.T.);
#44=ORIENTED_EDGE('',*,*,#104,.T.);
#45=ORIENTED_EDGE('',*,*,#105,.F.);
#46=ORIENTED_EDGE('',*,*,#106,.F.);
#47=ORIENTED_EDGE('',*,*,#101,.T.);
#48=ORIENTED_EDGE('',*,*,#107,.T.);
#49=ORIENTED_EDGE('',*,*,#108,.F.);
#50=ORIENTED_EDGE('',*,*,#109,.F.);
#51=ORIENTED_EDGE('',*,*,#105,.T.);
#52=ORIENTED_EDGE('',*,*,#110,.F.);
#53=ORIENTED_EDGE('',*,*,#103,.F.);
#54=ORIENTED_EDGE('',*,*,#111,.T.);
#55=ORIENTED_EDGE('',*,*,#108,.T.);
#56=ORIENTED_EDGE('',*,*,#102,.F.);
#57=ORIENTED_EDGE('',*,*,#106,.T.);
#58=ORIENTED_EDGE('',*,*,#109,.T.);
#59=ORIENTED_EDGE('',*,*,#111,.F.);
#60=ORIENTED_EDGE('',*,*,#100,.T.);
#61=ORIENTED_EDGE('',*,*,#110,.T.);
#62=ORIENTED_EDGE('',*,*,#107,.F.);
#63=ORIENTED_EDGE('',*,*,#104,.F.);
#64=ORIENTED_EDGE('',*,*,#112,.F.);
#65=ORIENTED_EDGE('',*,*,#113,.F.);
#66=ORIENTED_EDGE('',*,*,#114,.T.);
#67=ORIENTED_EDGE('',*,*,#115,.T.);
#68=ORIENTED_EDGE('',*,*,#116,.T.);
#69=ORIENTED_EDGE('',*,*,#117,.F.);
#70=ORIENTED_EDGE('',*,*,#118,.F.);
#71=ORIENTED_EDGE('',*,*,#113,.T.);
#72=ORIENTED_EDGE('',*,*,#119,.T.);
#73=ORIENTED_EDGE('',*,*,#120,.F.);
#74=ORIENTED_EDGE('',*,*,#121,.F.);
#75=ORIENTED_EDGE('',*,*,#117,.T.);
#76=ORIENTED_EDGE('',*,*,#122,.F.);
#77=ORIENTED_EDGE('',*,*,#115,.F.);
#78=ORIENTED_EDGE('',*,*,#123,.T.);
#79=ORIENTED_EDGE('',*,*,#120,.T.);
#80=ORIENTED_EDGE('',*,*,#114,.F.);
#81=ORIENTED_EDGE('',*,*,#118,.T.);
#82=ORIENTED_EDGE('',*,*,#121,.T.);
#83=ORIENTED_EDGE('',*,*,#123,.F.);
#84=ORIENTED_EDGE('',*,*,#112,.T.);
#85=ORIENTED_EDGE('',*,*,#122,.T.);
#86=ORIENTED_EDGE('',*,*,#119,.F.);
#87=ORIENTED_EDGE('',*,*,#116,.F.);
#88=EDGE_CURVE('',#124,#125,#148,.T.);
#89=EDGE_CURVE('',#126,#124,#149,.T.);
#90=EDGE_CURVE('',#126,#127,#150,.T.);
#91=EDGE_CURVE('',#127,#125,#151,.T.);
#92=EDGE_CURVE('',#124,#128,#152,.T.);
#93=EDGE_CURVE('',#129,#128,#153,.T.);
#94=EDGE_CURVE('',#126,#129,#154,.T.);
#95=EDGE_CURVE('',#128,#130,#155,.T.);
#96=EDGE_CURVE('',#131,#130,#156,.T.);
#97=EDGE_CURVE('',#129,#131,#157,.T.);
#98=EDGE_CURVE('',#125,#130,#158,.T.);
#99=EDGE_CURVE('',#127,#131,#159,.T.);
#100=EDGE_CURVE('',#132,#133,#160,.T.);
#101=EDGE_CURVE('',#134,#132,#161,.T.);
#102=EDGE_CURVE('',#134,#135,#162,.T.);
#103=EDGE_CURVE('',#135,#133,#163,.T.);
#104=EDGE_CURVE('',#132,#136,#164,.T.);
#105=EDGE_CURVE('',#137,#136,#165,.T.);
#106=EDGE_CURVE('',#134,#137,#166,.T.);
#107=EDGE_CURVE('',#136,#138,#167,.T.);
#108=EDGE_CURVE('',#139,#138,#168,.T.);
#109=EDGE_CURVE('',#137,#139,#169,.T.);
#110=EDGE_CURVE('',#133,#138,#170,.T.);
#111=EDGE_CURVE('',#135,#139,#171,.T.);
#112=EDGE_CURVE('',#140,#141,#172,.T.);
#113=EDGE_CURVE('',#142,#140,#173,.T.);
#114=EDGE_CURVE('',#142,#143,#174,.T.);
#115=EDGE_CURVE('',#143,#141,#175,.T.);
#116=EDGE_CURVE('',#140,#144,#176,.T.);
#117=EDGE_CURVE('',#145,#144,#177,.T.);
#118=EDGE_CURVE('',#142,#145,#178,.T.);
#119=EDGE_CURVE('',#144,#146,#179,.T.);
#120=EDGE_CURVE('',#147,#146,#180,.T.);
#121=EDGE_CURVE('',#145,#147,#181,.T.);
#122=EDGE_CURVE('',#141,#146,#182,.T.);
#123=EDGE_CURVE('',#143,#147,#183,.T.);
#124=VERTEX_POINT('',#430);
#125=VERTEX_POINT('',#431);
#126=VERTEX_POINT('',#433);
#127=VERTEX_POINT('',#435);
#128=VERTEX_POINT('',#439);
#129=VERTEX_POINT('',#441);
#130=VERTEX_POINT('',#445);
#131=VERTEX_POINT('',#447);
#132=VERTEX_POINT('',#457);
#133=VERTEX_POINT('',#458);
#134=VERTEX_POINT('',#460);
#135=VERTEX_POINT('',#462);
#136=VERTEX_POINT('',#466);
#137=VERTEX_POINT('',#468);
#138=VERTEX_POINT('',#472);
#139=VERTEX_POINT('',#474);
#140=VERTEX_POINT('',#484);
#141=VERTEX_POINT('',#485);
#142=VERTEX_POINT('',#487);
#143=VERTEX_POINT('',#489);
#144=VERTEX_POINT('',#493);
#145=VERTEX_POINT('',#495);
#146=VERTEX_POINT('',#499);
#147=VERTEX_POINT('',#501);
#148=LINE('',#429,#184);
#149=LINE('',#432,#185);
#150=LINE('',#434,#186);
#151=LINE('',#436,#187);
#152=LINE('',#438,#188);
#153=LINE('',#440,#189);
#154=LINE('',#442,#190);
#155=LINE('',#444,#191);
#156=LINE('',#446,#192);
#157=LINE('',#448,#193);
#158=LINE('',#450,#194);
#159=LINE('',#451,#195);
#160=LINE('',#456,#196);
#161=LINE('',#459,#197);
#162=LINE('',#461,#198);
#163=LINE('',#463,#199);
#164=LINE('',#465,#200);
#165=LINE('',#467,#201);
#166=LINE('',#469,#202);
#167=LINE('',#471,#203);
#168=LINE('',#473,#204);
#169=LINE('',#475,#205);
#170=LINE('',#477,#206);
#171=LINE('',#478,#207);
#172=LINE('',#483,#208);
#173=LINE('',#486,#209);
#174=LINE('',#488,#210);
#175=LINE('',#490,#211);
#176=LINE('',#492,#212);
#177=LINE('',#494,#213);
#178=LINE('',#496,#214);
#179=LINE('',#498,#215);
#180=LINE('',#500,#216);
#181=LINE('',#502,#217);
#182=LINE('',#504,#218);
#183=LINE('',#505,#219);
#184=VECTOR('',#353,1.);
#185=VECTOR('',#354,1.);
#186=VECTOR('',#355,1.);
#187=VECTOR('',#356,1.);
#188=VECTOR('',#359,1.);
#189=VECTOR('',#360,1.);
#190=VECTOR('',#361,1.);
#191=VECTOR('',#364,1.);
#192=VECTOR('',#365,1.);
#193=VECTOR('',#366,1.);
#194=VECTOR('',#369,1.);
#195=VECTOR('',#370,1.);
#196=VECTOR('',#379,1.);
#197=VECTOR('',#380,1.);
#198=VECTOR('',#381,1.);
#199=VECTOR('',#382,1.);
#200=VECTOR('',#385,1.);
#201=VECTOR('',#386,1.);
#202=VECTOR('',#387,1.);
#203=VECTOR('',#390,1.);
#204=VECTOR('',#391,1.);
#205=VECTOR('',#392,1.);
#206=VECTOR('',#395,1.);
#207=VECTOR('',#396,1.);
#208=VECTOR('',#405,1.);
#209=VECTOR('',#406,1.);
#210=VECTOR('',#407,1.);
#211=VECTOR('',#408,1.);
#212=VECTOR('',#411,1.);
#213=VECTOR('',#412,1.);
#214=VECTOR('',#413,1.);
#215=VECTOR('',#416,1.);
#216=VECTOR('',#417,1.);
#217=VECTOR('',#418,1.);
#218=VECTOR('',#421,1.);
#219=VECTOR('',#422,1.);
#220=EDGE_LOOP('',(#16,#17,#18,#19));
#221=EDGE_LOOP('',(#20,#21,#22,#23));
#222=EDGE_LOOP('',(#24,#25,#26,#27));
#223=EDGE_LOOP('',(#28,#29,#30,#31));
#224=EDGE_LOOP('',(#32,#33,#34,#35));
#225=EDGE_LOOP('',(#36,#37,#38,#39));
#226=EDGE_LOOP('',(#40,#41,#42,#43));
#227=EDGE_LOOP('',(#44,#45,#46,#47));
#228=EDGE_LOOP('',(#48,#49,#50,#51));
#229=EDGE_LOOP('',(#52,#53,#54,#55));
#230=EDGE_LOOP('',(#56,#57,#58,#59));
#231=EDGE_LOOP('',(#60,#61,#62,#63));
#232=EDGE_LOOP('',(#64,#65,#66,#67));
#233=EDGE_LOOP('',(#68,#69,#70,#71));
#234=EDGE_LOOP('',(#72,#73,#74,#75));
#235=EDGE_LOOP('',(#76,#77,#78,#79));
#236=EDGE_LOOP('',(#80,#81,#82,#83));
#237=EDGE_LOOP('',(#84,#85,#86,#87));
#238=FACE_BOUND('',#220,.T.);
#239=FACE_BOUND('',#221,.T.);
#240=FACE_BOUND('',#222,.T.);
#241=FACE_BOUND('',#223,.T.);
#242=FACE_BOUND('',#224,.T.);
#243=FACE_BOUND('',#225,.T.);
#244=FACE_BOUND('',#226,.T.);
#245=FACE_BOUND('',#227,.T.);
#246=FACE_BOUND('',#228,.T.);
#247=FACE_BOUND('',#229,.T.);
#248=FACE_BOUND('',#230,.T.);
#249=FACE_BOUND('',#231,.T.);
#250=FACE_BOUND('',#232,.T.);
#251=FACE_BOUND('',#233,.T.);
#252=FACE_BOUND('',#234,.T.);
#253=FACE_BOUND('',#235,.T.);
#254=FACE_BOUND('',#236,.T.);
#255=FACE_BOUND('',#237,.T.);
#256=PLANE('',#329);
#257=PLANE('',#330);
#258=PLANE('',#331);
#259=PLANE('',#332);
#260=PLANE('',#333);
#261=PLANE('',#334);
#262=PLANE('',#336);
#263=PLANE('',#337);
#264=PLANE('',#338);
#265=PLANE('',#339);
#266=PLANE('',#340);
#267=PLANE('',#341);
#268=PLANE('',#343);
#269=PLANE('',#344);
#270=PLANE('',#345);
#271=PLANE('',#346);
#272=PLANE('',#347);
#273=PLANE('',#348);
#274=ADVANCED_FACE('',(#238),#256,.T.);
#275=ADVANCED_FACE('',(#239),#257,.F.);
#276=ADVANCED_FACE('',(#240),#258,.F.);
#277=ADVANCED_FACE('',(#241),#259,.T.);
#278=ADVANCED_FACE('',(#242),#260,.T.);
#279=ADVANCED_FACE('',(#243),#261,.F.);
#280=ADVANCED_FACE('',(#244),#262,.T.);
#281=ADVANCED_FACE('',(#245),#263,.F.);
#282=ADVANCED_FACE('',(#246),#264,.F.);
#283=ADVANCED_FACE('',(#247),#265,.T.);
#284=ADVANCED_FACE('',(#248),#266,.T.);
#285=ADVANCED_FACE('',(#249),#267,.F.);
#286=ADVANCED_FACE('',(#250),#268,.T.);
#287=ADVANCED_FACE('',(#251),#269,.F.);
#288=ADVANCED_FACE('',(#252),#270,.F.);
#289=ADVANCED_FACE('',(#253),#271,.T.);
#290=ADVANCED_FACE('',(#254),#272,.T.);
#291=ADVANCED_FACE('',(#255),#273,.F.);
#292=CLOSED_SHELL('',(#274,#275,#276,#277,#278,#279));
#293=CLOSED_SHELL('',(#280,#281,#282,#283,#284,#285));
#294=CLOSED_SHELL('',(#286,#287,#288,#289,#290,#291));
#295=STYLED_ITEM('',(#298),#319);
#296=STYLED_ITEM('',(#299),#320);
#297=STYLED_ITEM('',(#300),#321);
#298=PRESENTATION_STYLE_ASSIGNMENT((#301));
#299=PRESENTATION_STYLE_ASSIGNMENT((#302));
#300=PRESENTATION_STYLE_ASSIGNMENT((#303));
#301=SURFACE_STYLE_USAGE(.BOTH.,#304);
#302=SURFACE_STYLE_USAGE(.BOTH.,#305);
#303=SURFACE_STYLE_USAGE(.BOTH.,#306);
#304=SURFACE_SIDE_STYLE('',(#307));
#305=SURFACE_SIDE_STYLE('',(#308));
#306=SURFACE_SIDE_STYLE('',(#309));
#307=SURFACE_STYLE_FILL_AREA(#310);
#308=SURFACE_STYLE_FILL_AREA(#311);
#309=SURFACE_STYLE_FILL_AREA(#312);
#310=FILL_AREA_STYLE('',(#313));
#311=FILL_AREA_STYLE('',(#314));
#312=FILL_AREA_STYLE('',(#315));
#313=FILL_AREA_STYLE_COLOUR('',#316);
#314=FILL_AREA_STYLE_COLOUR('',#317);
#315=FILL_AREA_STYLE_COLOUR('',#318);
#316=COLOUR_RGB('',0.917647058823529,0.917647058823529,0.917647058823529);
#317=COLOUR_RGB('',0.231372549019608,0.380392156862745,0.705882352941177);
#318=COLOUR_RGB('',0.768627450980392,0.886274509803922,0.952941176470588);
#319=MANIFOLD_SOLID_BREP('Part 4',#292);
#320=MANIFOLD_SOLID_BREP('Part 3',#293);
#321=MANIFOLD_SOLID_BREP('Part 5',#294);
#322=SHAPE_DEFINITION_REPRESENTATION(#526,#325);
#323=SHAPE_DEFINITION_REPRESENTATION(#527,#326);
#324=SHAPE_DEFINITION_REPRESENTATION(#528,#327);
#325=SHAPE_REPRESENTATION('Part 4',(#328),#511);
#326=SHAPE_REPRESENTATION('Part 3',(#335),#512);
#327=SHAPE_REPRESENTATION('Part 5',(#342),#513);
#328=AXIS2_PLACEMENT_3D('',#427,#349,#350);
#329=AXIS2_PLACEMENT_3D('',#428,#351,#352);
#330=AXIS2_PLACEMENT_3D('',#437,#357,#358);
#331=AXIS2_PLACEMENT_3D('',#443,#362,#363);
#332=AXIS2_PLACEMENT_3D('',#449,#367,#368);
#333=AXIS2_PLACEMENT_3D('',#452,#371,#372);
#334=AXIS2_PLACEMENT_3D('',#453,#373,#374);
#335=AXIS2_PLACEMENT_3D('',#454,#375,#376);
#336=AXIS2_PLACEMENT_3D('',#455,#377,#378);
#337=AXIS2_PLACEMENT_3D('',#464,#383,#384);
#338=AXIS2_PLACEMENT_3D('',#470,#388,#389);
#339=AXIS2_PLACEMENT_3D('',#476,#393,#394);
#340=AXIS2_PLACEMENT_3D('',#479,#397,#398);
#341=AXIS2_PLACEMENT_3D('',#480,#399,#400);
#342=AXIS2_PLACEMENT_3D('',#481,#401,#402);
#343=AXIS2_PLACEMENT_3D('',#482,#403,#404);
#344=AXIS2_PLACEMENT_3D('',#491,#409,#410);
#345=AXIS2_PLACEMENT_3D('',#497,#414,#415);
#346=AXIS2_PLACEMENT_3D('',#503,#419,#420);
#347=AXIS2_PLACEMENT_3D('',#506,#423,#424);
#348=AXIS2_PLACEMENT_3D('',#507,#425,#426);
#349=DIRECTION('',(0.,0.,1.));
#350=DIRECTION('',(1.,0.,0.));
#351=DIRECTION('',(0.,0.,-1.));
#352=DIRECTION('',(-1.,0.,0.));
#353=DIRECTION('',(-1.,0.,0.));
#354=DIRECTION('',(0.,1.,0.));
#355=DIRECTION('',(-1.,0.,0.));
#356=DIRECTION('',(0.,1.,0.));
#357=DIRECTION('',(-1.,0.,-1.23908819712629E-16));
#358=DIRECTION('',(-1.23908819712629E-16,0.,1.));
#359=DIRECTION('',(-1.23908819712629E-16,0.,1.));
#360=DIRECTION('',(0.,1.,0.));
#361=DIRECTION('',(-1.23908819712629E-16,0.,1.));
#362=DIRECTION('',(0.,0.,-1.));
#363=DIRECTION('',(-1.,0.,0.));
#364=DIRECTION('',(-1.,0.,0.));
#365=DIRECTION('',(0.,1.,0.));
#366=DIRECTION('',(-1.,0.,0.));
#367=DIRECTION('',(-1.,0.,0.));
#368=DIRECTION('',(0.,0.,1.));
#369=DIRECTION('',(0.,0.,1.));
#370=DIRECTION('',(0.,0.,1.));
#371=DIRECTION('',(0.,-1.,0.));
#372=DIRECTION('',(1.,0.,0.));
#373=DIRECTION('',(0.,-1.,0.));
#374=DIRECTION('',(1.,0.,0.));
#375=DIRECTION('',(0.,0.,1.));
#376=DIRECTION('',(1.,0.,0.));
#377=DIRECTION('',(0.,0.,-1.));
#378=DIRECTION('',(-1.,0.,0.));
#379=DIRECTION('',(-1.,0.,0.));
#380=DIRECTION('',(0.,1.,0.));
#381=DIRECTION('',(-1.,0.,0.));
#382=DIRECTION('',(0.,1.,0.));
#383=DIRECTION('',(-1.,0.,0.));
#384=DIRECTION('',(0.,0.,1.));
#385=DIRECTION('',(0.,0.,1.));
#386=DIRECTION('',(0.,1.,0.));
#387=DIRECTION('',(0.,0.,1.));
#388=DIRECTION('',(0.,0.,-1.));
#389=DIRECTION('',(-1.,0.,0.));
#390=DIRECTION('',(-1.,0.,0.));
#391=DIRECTION('',(0.,1.,0.));
#392=DIRECTION('',(-1.,0.,0.));
#393=DIRECTION('',(-1.,0.,0.));
#394=DIRECTION('',(0.,0.,1.));
#395=DIRECTION('',(0.,0.,1.));
#396=DIRECTION('',(0.,0.,1.));
#397=DIRECTION('',(0.,-1.,0.));
#398=DIRECTION('',(1.,0.,0.));
#399=DIRECTION('',(0.,-1.,0.));
#400=DIRECTION('',(1.,0.,0.));
#401=DIRECTION('',(0.,0.,1.));
#402=DIRECTION('',(1.,0.,0.));
#403=DIRECTION('',(0.,0.,-1.));
#404=DIRECTION('',(-1.,0.,0.));
#405=DIRECTION('',(-1.,0.,0.));
#406=DIRECTION('',(0.,1.,0.));
#407=DIRECTION('',(-1.,0.,0.));
#408=DIRECTION('',(0.,1.,0.));
#409=DIRECTION('',(-1.,0.,0.));
#410=DIRECTION('',(0.,0.,1.));
#411=DIRECTION('',(0.,0.,1.));
#412=DIRECTION('',(0.,1.,0.));
#413=DIRECTION('',(0.,0.,1.));
#414=DIRECTION('',(0.,0.,-1.));
#415=DIRECTION('',(-1.,0.,0.));
#416=DIRECTION('',(-1.,0.,0.));
#417=DIRECTION('',(0.,1.,0.));
#418=DIRECTION('',(-1.,0.,0.));
#419=DIRECTION('',(-1.,0.,0.));
#420=DIRECTION('',(0.,0.,1.));
#421=DIRECTION('',(0.,0.,1.));
#422=DIRECTION('',(0.,0.,1.));
#423=DIRECTION('',(0.,-1.,0.));
#424=DIRECTION('',(1.,0.,0.));
#425=DIRECTION('',(0.,-1.,0.));
#426=DIRECTION('',(1.,0.,0.));
#427=CARTESIAN_POINT('',(0.,0.,0.));
#428=CARTESIAN_POINT('',(-0.0138623376634327,-0.01,0.0202604944540196));
#429=CARTESIAN_POINT('',(-0.0138623376634327,0.,0.0202604944540196));
#430=CARTESIAN_POINT('',(-0.0068623376634327,0.,0.0202604944540196));
#431=CARTESIAN_POINT('',(-0.0208623376634327,0.,0.0202604944540196));
#432=CARTESIAN_POINT('',(-0.0068623376634327,-0.01,0.0202604944540196));
#433=CARTESIAN_POINT('',(-0.0068623376634327,-0.01,0.0202604944540196));
#434=CARTESIAN_POINT('',(-0.0138623376634327,-0.01,0.0202604944540196));
#435=CARTESIAN_POINT('',(-0.0208623376634327,-0.01,0.0202604944540196));
#436=CARTESIAN_POINT('',(-0.0208623376634327,-0.01,0.0202604944540196));
#437=CARTESIAN_POINT('',(-0.0068623376634327,-0.01,0.0272604944540197));
#438=CARTESIAN_POINT('',(-0.0068623376634327,0.,0.0272604944540197));
#439=CARTESIAN_POINT('',(-0.0068623376634327,0.,0.0342604944540197));
#440=CARTESIAN_POINT('',(-0.0068623376634327,-0.01,0.0342604944540197));
#441=CARTESIAN_POINT('',(-0.0068623376634327,-0.01,0.0342604944540197));
#442=CARTESIAN_POINT('',(-0.0068623376634327,-0.01,0.0272604944540197));
#443=CARTESIAN_POINT('',(-0.0138623376634327,-0.01,0.0342604944540197));
#444=CARTESIAN_POINT('',(-0.0138623376634327,0.,0.0342604944540197));
#445=CARTESIAN_POINT('',(-0.0208623376634327,0.,0.0342604944540197));
#446=CARTESIAN_POINT('',(-0.0208623376634327,-0.01,0.0342604944540197));
#447=CARTESIAN_POINT('',(-0.0208623376634327,-0.01,0.0342604944540197));
#448=CARTESIAN_POINT('',(-0.0138623376634327,-0.01,0.0342604944540197));
#449=CARTESIAN_POINT('',(-0.0208623376634327,-0.01,0.0272604944540197));
#450=CARTESIAN_POINT('',(-0.0208623376634327,0.,0.0272604944540197));
#451=CARTESIAN_POINT('',(-0.0208623376634327,-0.01,0.0272604944540197));
#452=CARTESIAN_POINT('',(-0.0127272071541187,-0.01,0.0246118472632055));
#453=CARTESIAN_POINT('',(-0.0127272071541187,0.,0.0246118472632055));
#454=CARTESIAN_POINT('',(0.,0.,0.));
#455=CARTESIAN_POINT('',(-0.0346731559876985,-0.01,0.0149632000723914));
#456=CARTESIAN_POINT('',(-0.0346731559876985,0.,0.0149632000723914));
#457=CARTESIAN_POINT('',(-0.0276731559876985,0.,0.0149632000723914));
#458=CARTESIAN_POINT('',(-0.0416731559876985,0.,0.0149632000723914));
#459=CARTESIAN_POINT('',(-0.0276731559876985,-0.01,0.0149632000723914));
#460=CARTESIAN_POINT('',(-0.0276731559876985,-0.01,0.0149632000723914));
#461=CARTESIAN_POINT('',(-0.0346731559876985,-0.01,0.0149632000723914));
#462=CARTESIAN_POINT('',(-0.0416731559876985,-0.01,0.0149632000723914));
#463=CARTESIAN_POINT('',(-0.0416731559876985,-0.01,0.0149632000723914));
#464=CARTESIAN_POINT('',(-0.0276731559876985,-0.01,0.0219632000723914));
#465=CARTESIAN_POINT('',(-0.0276731559876985,0.,0.0219632000723914));
#466=CARTESIAN_POINT('',(-0.0276731559876985,0.,0.0289632000723915));
#467=CARTESIAN_POINT('',(-0.0276731559876985,-0.01,0.0289632000723915));
#468=CARTESIAN_POINT('',(-0.0276731559876985,-0.01,0.0289632000723915));
#469=CARTESIAN_POINT('',(-0.0276731559876985,-0.01,0.0219632000723914));
#470=CARTESIAN_POINT('',(-0.0346731559876985,-0.01,0.0289632000723915));
#471=CARTESIAN_POINT('',(-0.0346731559876985,0.,0.0289632000723915));
#472=CARTESIAN_POINT('',(-0.0416731559876985,0.,0.0289632000723915));
#473=CARTESIAN_POINT('',(-0.0416731559876985,-0.01,0.0289632000723915));
#474=CARTESIAN_POINT('',(-0.0416731559876985,-0.01,0.0289632000723915));
#475=CARTESIAN_POINT('',(-0.0346731559876985,-0.01,0.0289632000723915));
#476=CARTESIAN_POINT('',(-0.0416731559876985,-0.01,0.0219632000723914));
#477=CARTESIAN_POINT('',(-0.0416731559876985,0.,0.0219632000723914));
#478=CARTESIAN_POINT('',(-0.0416731559876985,-0.01,0.0219632000723914));
#479=CARTESIAN_POINT('',(-0.0127272071541187,-0.01,0.0246118472632055));
#480=CARTESIAN_POINT('',(-0.0127272071541187,0.,0.0246118472632055));
#481=CARTESIAN_POINT('',(0.,0.,0.));
#482=CARTESIAN_POINT('',(0.00921874167946104,-0.01,0.0183686050853029));
#483=CARTESIAN_POINT('',(0.00921874167946104,0.,0.0183686050853029));
#484=CARTESIAN_POINT('',(0.0162187416794611,0.,0.0183686050853029));
#485=CARTESIAN_POINT('',(0.00221874167946103,0.,0.0183686050853029));
#486=CARTESIAN_POINT('',(0.0162187416794611,-0.01,0.0183686050853029));
#487=CARTESIAN_POINT('',(0.0162187416794611,-0.01,0.0183686050853029));
#488=CARTESIAN_POINT('',(0.00921874167946104,-0.01,0.0183686050853029));
#489=CARTESIAN_POINT('',(0.00221874167946103,-0.01,0.0183686050853029));
#490=CARTESIAN_POINT('',(0.00221874167946103,-0.01,0.0183686050853029));
#491=CARTESIAN_POINT('',(0.0162187416794611,-0.01,0.0253686050853029));
#492=CARTESIAN_POINT('',(0.0162187416794611,0.,0.0253686050853029));
#493=CARTESIAN_POINT('',(0.0162187416794611,0.,0.0323686050853029));
#494=CARTESIAN_POINT('',(0.0162187416794611,-0.01,0.0323686050853029));
#495=CARTESIAN_POINT('',(0.0162187416794611,-0.01,0.0323686050853029));
#496=CARTESIAN_POINT('',(0.0162187416794611,-0.01,0.0253686050853029));
#497=CARTESIAN_POINT('',(0.00921874167946104,-0.01,0.0323686050853029));
#498=CARTESIAN_POINT('',(0.00921874167946104,0.,0.0323686050853029));
#499=CARTESIAN_POINT('',(0.00221874167946103,0.,0.0323686050853029));
#500=CARTESIAN_POINT('',(0.00221874167946103,-0.01,0.0323686050853029));
#501=CARTESIAN_POINT('',(0.00221874167946103,-0.01,0.0323686050853029));
#502=CARTESIAN_POINT('',(0.00921874167946104,-0.01,0.0323686050853029));
#503=CARTESIAN_POINT('',(0.00221874167946103,-0.01,0.0253686050853029));
#504=CARTESIAN_POINT('',(0.00221874167946103,0.,0.0253686050853029));
#505=CARTESIAN_POINT('',(0.00221874167946103,-0.01,0.0253686050853029));
#506=CARTESIAN_POINT('',(-0.0127272071541187,-0.01,0.0246118472632055));
#507=CARTESIAN_POINT('',(-0.0127272071541187,0.,0.0246118472632055));
#508=MECHANICAL_DESIGN_GEOMETRIC_PRESENTATION_REPRESENTATION('',(#295),
#511);
#509=MECHANICAL_DESIGN_GEOMETRIC_PRESENTATION_REPRESENTATION('',(#296),
#512);
#510=MECHANICAL_DESIGN_GEOMETRIC_PRESENTATION_REPRESENTATION('',(#297),
#513);
#511=(
GEOMETRIC_REPRESENTATION_CONTEXT(3)
GLOBAL_UNCERTAINTY_ASSIGNED_CONTEXT((#514))
GLOBAL_UNIT_ASSIGNED_CONTEXT((#523,#520,#517))
REPRESENTATION_CONTEXT('Part 4','TOP_LEVEL_ASSEMBLY_PART')
);
#512=(
GEOMETRIC_REPRESENTATION_CONTEXT(3)
GLOBAL_UNCERTAINTY_ASSIGNED_CONTEXT((#515))
GLOBAL_UNIT_ASSIGNED_CONTEXT((#524,#521,#518))
REPRESENTATION_CONTEXT('Part 3','TOP_LEVEL_ASSEMBLY_PART')
);
#513=(
GEOMETRIC_REPRESENTATION_CONTEXT(3)
GLOBAL_UNCERTAINTY_ASSIGNED_CONTEXT((#516))
GLOBAL_UNIT_ASSIGNED_CONTEXT((#525,#522,#519))
REPRESENTATION_CONTEXT('Part 5','TOP_LEVEL_ASSEMBLY_PART')
);
#514=UNCERTAINTY_MEASURE_WITH_UNIT(LENGTH_MEASURE(1.E-8),#523,
'DISTANCE_ACCURACY_VALUE','Maximum Tolerance applied to model');
#515=UNCERTAINTY_MEASURE_WITH_UNIT(LENGTH_MEASURE(1.E-8),#524,
'DISTANCE_ACCURACY_VALUE','Maximum Tolerance applied to model');
#516=UNCERTAINTY_MEASURE_WITH_UNIT(LENGTH_MEASURE(1.E-8),#525,
'DISTANCE_ACCURACY_VALUE','Maximum Tolerance applied to model');
#517=(
NAMED_UNIT(*)
SI_UNIT($,.STERADIAN.)
SOLID_ANGLE_UNIT()
);
#518=(
NAMED_UNIT(*)
SI_UNIT($,.STERADIAN.)
SOLID_ANGLE_UNIT()
);
#519=(
NAMED_UNIT(*)
SI_UNIT($,.STERADIAN.)
SOLID_ANGLE_UNIT()
);
#520=(
NAMED_UNIT(*)
PLANE_ANGLE_UNIT()
SI_UNIT($,.RADIAN.)
);
#521=(
NAMED_UNIT(*)
PLANE_ANGLE_UNIT()
SI_UNIT($,.RADIAN.)
);
#522=(
NAMED_UNIT(*)
PLANE_ANGLE_UNIT()
SI_UNIT($,.RADIAN.)
);
#523=(
LENGTH_UNIT()
NAMED_UNIT(*)
SI_UNIT($,.METRE.)
);
#524=(
LENGTH_UNIT()
NAMED_UNIT(*)
SI_UNIT($,.METRE.)
);
#525=(
LENGTH_UNIT()
NAMED_UNIT(*)
SI_UNIT($,.METRE.)
);
#526=PRODUCT_DEFINITION_SHAPE('','',#529);
#527=PRODUCT_DEFINITION_SHAPE('','',#530);
#528=PRODUCT_DEFINITION_SHAPE('','',#531);
#529=PRODUCT_DEFINITION('','',#535,#532);
#530=PRODUCT_DEFINITION('','',#536,#533);
#531=PRODUCT_DEFINITION('','',#537,#534);
#532=PRODUCT_DEFINITION_CONTEXT('',#553,'design');
#533=PRODUCT_DEFINITION_CONTEXT('',#554,'design');
#534=PRODUCT_DEFINITION_CONTEXT('',#555,'design');
#535=PRODUCT_DEFINITION_FORMATION_WITH_SPECIFIED_SOURCE('','',#541,
 .NOT_KNOWN.);
#536=PRODUCT_DEFINITION_FORMATION_WITH_SPECIFIED_SOURCE('','',#542,
 .NOT_KNOWN.);
#537=PRODUCT_DEFINITION_FORMATION_WITH_SPECIFIED_SOURCE('','',#543,
 .NOT_KNOWN.);
#538=PRODUCT_RELATED_PRODUCT_CATEGORY('','',(#541));
#539=PRODUCT_RELATED_PRODUCT_CATEGORY('','',(#542));
#540=PRODUCT_RELATED_PRODUCT_CATEGORY('','',(#543));
#541=PRODUCT('Part 4','Part 4','Part 4',(#547));
#542=PRODUCT('Part 3','Part 3','Part 3',(#548));
#543=PRODUCT('Part 5','Part 5','Part 5',(#549));
#544=PRODUCT_CATEGORY('','');
#545=PRODUCT_CATEGORY('','');
#546=PRODUCT_CATEGORY('','');
#547=PRODUCT_CONTEXT('',#553,'mechanical');
#548=PRODUCT_CONTEXT('',#554,'mechanical');
#549=PRODUCT_CONTEXT('',#555,'mechanical');
#550=APPLICATION_PROTOCOL_DEFINITION('international standard',
'ap242_managed_model_based_3d_engineering',2020,#553);
#551=APPLICATION_PROTOCOL_DEFINITION('international standard',
'ap242_managed_model_based_3d_engineering',2020,#554);
#552=APPLICATION_PROTOCOL_DEFINITION('international standard',
'ap242_managed_model_based_3d_engineering',2020,#555);
#553=APPLICATION_CONTEXT('managed model based 3d engineering');
#554=APPLICATION_CONTEXT('managed model based 3d engineering');
#555=APPLICATION_CONTEXT('managed model based 3d engineering');
ENDSEC;
END-ISO-10303-21;
